<svg xmlns="http://www.w3.org/2000/svg" fill="none" viewBox="0 0 2400 1600">
  <path fill="#d9dada" d="M414 343h1252v1257H414V343z"/>
  <path fill="#b1b2b3" d="M1666 971.5V343h304v1257h-304V971.5z"/>
  <path fill="#730a1b" d="M970.692 1595.58c-50.6-3.1-160.9-23.4-246.6-45.4-82.8-21.3-142.3-40.9-183.6-60.4-10.5-4.9-10.8-5.2-10.8-8.3 0-1.8-.7-23.3-1.5-47.8l-5.5-136-1.5-58-1-43.3c-.5-9.3-1-9.3 12 1.8 30.5 26.3 78.2 62.1 115 86.4 49.3 32.6 79.3 50.2 130.5 76.4 77.1 39.5 158.8 68.5 232.498 82.7 49.8 9.5 83.5 12.1 133.5 10.2 102.5-3.9 186.9-29.6 249.9-76 11.3-8.4 33.6-30 43-41.6 30.3-37.9 47.2-82.4 50.3-132.4 1.3-20.9.6-30.7-3.7-49.7-11.3-50.8-41.5-104.4-79.1-140.5-20.8-20.105-40-31.705-75.4-45.805-79.9-31.9-220.6-61.1-385.998-80.2-18.3-2.1-57.4-8.5-73.3-12.1-42.1-9.3-92.7-27.2-123.7-43.6l-16.3-8.5c-10.4-5.2-36.9-22.4-53.2-34.7-15.6-11.7-27-21.8-41.8-37.1-23.8-24.5-42.3-48.4-55.6-71.8-6.9-12-19.4-37.2-22.5-45.2l-4.1-10.5c-3.4-7.9-10.8-33-13.9-47.2-6.8-30.4-9.2-58.6-8.2-96.8 1.5-61.6 9.8-113.5 26.2-164.8 28.3-88.2 81.2-161.4 154.6-214 23.2-16.6 61.1-37.5 90.9-50.2 62.2-26.5 140.3-43.6 217.398-47.5 119.3-6 239.3 11.1 358.6 51 29.7 9.9 58.5 21 81.7 31.3l11.7 5.3.3 123.3.2 123.3-4.4-3.8c-2.5-2.2-12.2-11.3-21.8-20.3-54.6-51.9-106.8-92.4-147.3-114.3-43.2-23.5-74.7-35.9-116-45.8-26.8-6.5-70.1-12.2-106-14.2-56.1-3-162.598 0-204.998 5.7-33.5 4.6-62.1 11.1-89.7 20.4-54.6 18.5-93.2 42.7-123.8 77.5-17.1 19.5-31.6 45.1-40.3 71.2-8.5 25.7-11.3 48.5-10.4 86.7 1 45.8 8.4 79.2 25.6 115.2 35.5 74.3 110 124.8 228.6 154.8 36.2 9.2 75.2 16.5 131.5 24.6 219.098 31.7 324.198 58.4 418.498 106.2 33.2 16.8 42.2 22.9 62.6 42.6 44.5 43 75.7 113.1 88.9 199.905 2.8 18 3.1 23 3.7 52.4 1.2 64.5-5.7 111.3-24.8 168.2-7.3 21.8-12.4 34-24.5 57.8-26.7 53.1-56.1 91.2-103.9 135.3-14.4 13.2-38.3 31.7-57.5 44.3-81.8 53.7-188.7 87.1-299 93.4-19.8 1.1-67.198 1.1-85.998-.1zM1800.2 334.075c-18.7-2-40.8-8.5-57.7-16.9-46.1-22.9-77.8-64.1-89-115.5-2-9.2-2.3-13.3-2.3-33.5s.3-24.3 2.3-33.5c11.2-51.4 42.9-92.6 89-115.5 13.1-6.5 28.2-11.6 43.3-14.7 16.5-3.3 45.3-3.3 61.8 0 64.7 13 114.7 60 130.5 122.7 3.6 14.3 4.6 23.6 4.6 41s-1 26.7-4.6 41c-15.7 62.5-66.1 109.9-129.9 122.5-10.7 2.1-37.9 3.5-48 2.4z"/>
</svg>