<svg version="1" xmlns="http://www.w3.org/2000/svg" width="2133.333" height="2133.333" viewBox="0 0 1600.000000 1600.000000"><path d="M630.5 3.1c-76.1 2.7-153 18-217.6 43.4C396 53.1 363.7 68.8 346 79c-88.9 51.1-154.2 130.9-187.3 229-19.1 56.4-27.3 106.7-28.4 173.7-.9 54.2 2.2 79.3 15.4 123.8 9.8 33.5 31.8 76.7 53.7 105.9 18 23.9 46.9 54 68.1 71 12.6 10 46.9 33.1 59.5 40.1 15.6 8.6 40.3 20.3 57 26.8 54.5 21.4 94.7 30.7 175.5 40.7 185 22.9 325.3 54.9 396.7 90.5 21.3 10.6 34.2 20 51.5 37.4 34.3 34.5 61.3 82.1 73.3 129.6 5.4 21.1 6.4 30.5 5.7 49.8-1 25.6-4.5 45.3-12.3 68.9-8 24.1-22.3 50.2-38.2 69.9-8.3 10.3-33.4 34.4-43.7 42.1-24.8 18.3-56.1 34.6-90.7 47.2-67.6 24.5-167.6 34.7-246.2 25.1-96.1-11.7-199.2-47.1-307.6-105.5-70.5-37.9-146.4-89.4-210.4-142.7-8.8-7.3-16.3-13.3-16.8-13.3-.4 0-.8 3.3-.8 7.2 0 19.6 2.2 98.2 3.5 128.3 2.1 48.7 4.3 106.1 5.1 134.4.6 20.8 1 24.7 2.4 26.1 2 2 27.4 13.3 45.5 20.3 89.3 34.3 251.7 73.4 364.6 87.7 45.3 5.7 114.7 5 163.9-1.6 106.9-14.3 201.9-51 275.5-106.4 21-15.8 31.8-25.3 52-45.5 41.7-41.7 64.8-74.9 92.7-133 15.8-33.1 30.3-81.2 36.3-120.6 6.4-42 7.1-107.2 1.5-141.9-8.4-52.1-21-93.4-40.1-131-13.8-27.4-26.7-45.8-45.3-64.9-13.3-13.6-23.2-21.9-34.6-29.3-9.1-5.8-47.6-25.4-65.5-33.3-83.6-36.8-184.8-60.8-372.5-88.5-66.6-9.8-104-16.6-139.5-25.4-108.1-26.8-178.9-69.4-219.4-131.9-12.2-19-23.8-46-30.1-69.9-10.4-39.7-11.8-102.6-3.1-138.9 6.2-26.1 20.1-55.4 36.8-77.7 8.1-10.8 25-28 36.8-37.5 50.1-40.4 127.5-66.8 214.5-73.1 39.2-2.9 76.6-3.8 130.5-3.3 53.2.4 64.6 1.1 96.5 5.2 64.9 8.5 110.6 23.1 165.3 52.6 46.3 25.1 89.3 58.1 152.2 116.9 11 10.3 21.5 19.9 23.3 21.4l3.2 2.8-.1-96.4c-.1-52.9-.4-108.6-.8-123.7l-.6-27.3-11-5c-27.2-12.3-73.7-29.3-109.9-40.3C866.1 20.3 786.5 6.7 700 3c-25.6-1.1-37.5-1.1-69.5.1zM1390.5 3.5c-24.6 4-51 15-72.3 30.2-9 6.3-25 21.9-32.7 31.8-15.4 19.7-26 42.5-32.1 69-2.7 11.4-2.7 57.4-.1 68 9.4 37.8 28.5 69.9 54.9 92.1 23.7 19.9 47.2 30.9 80.8 38 10 2.1 34.8 2.4 50 .5 44.4-5.5 86.9-31.1 113.5-68.4 12.7-17.6 22.8-41 27.6-63.7 2-9.1 2.3-13.5 2.3-33s-.3-23.9-2.2-32.7C1565.7 68.4 1516.6 19.4 1449 4.5c-10.7-2.3-46.3-2.9-58.5-1zM1266 971.5V1600h304V343h-304v628.5z"/></svg>